<svg xmlns="http://www.w3.org/2000/svg" style="display:none">
<!--
  Sprite de iconos propio. Sustituye a las dos hojas de cdn-uicons.flaticon.com,
  que costaban dos peticiones externas, dos dominios en la CSP e iconos que no
  controlabamos.
  Cuadro de 24, trazo 1,5, sin relleno y en `currentColor`: heredan el color del
  texto, asi que funcionan en tema claro y oscuro sin una sola regla extra.
  Uso:  <svg class="icono" aria-hidden="true"><use href="/assets/img/iconos.svg#subir"></use></svg>
  Si el icono es la unica etiqueta de un control, el control necesita
  `aria-label`: el <svg> va siempre `aria-hidden`.
  Rediseño 2026: el sprite pasa a ser el del sistema nuevo (44 iconos, trazo
  1,6 en el diseño; aquí lo pone la clase `.icono`). Los doce de antes siguen
  con el mismo id, así que nada de lo que ya los usaba cambia.
-->
<symbol id="subir" viewBox="0 0 24 24"><path d="M12 19V5M5 12l7-7 7 7"></path></symbol>
<symbol id="clasificacion" viewBox="0 0 24 24"><path d="M4 20h4V10H4zM10 20h4V4h-4zM16 20h4v-7h-4z"></path></symbol>
<symbol id="mapa" viewBox="0 0 24 24"><path d="M9 3 3 6v15l6-3 6 3 6-3V3l-6 3z"></path><path d="M9 3v15M15 6v15"></path></symbol>
<symbol id="perfil" viewBox="0 0 24 24"><circle cx="12" cy="8" r="4"></circle><path d="M4 21a8 8 0 0 1 16 0"></path></symbol>
<symbol id="ruta" viewBox="0 0 24 24"><circle cx="6" cy="6" r="2.5"></circle><circle cx="18" cy="18" r="2.5"></circle><path d="M8.5 6H14a3.5 3.5 0 0 1 0 7h-4a3.5 3.5 0 0 0 0 7h5.5"></path></symbol>
<symbol id="reloj" viewBox="0 0 24 24"><circle cx="12" cy="12" r="9"></circle><path d="M12 7v5l3.5 2"></path></symbol>
<symbol id="clan" viewBox="0 0 24 24"><circle cx="9" cy="8" r="3.5"></circle><path d="M2 20a7 7 0 0 1 14 0"></path><path d="M16 5.5a3.5 3.5 0 0 1 0 6.9M17.5 14a6 6 0 0 1 4.5 5.8"></path></symbol>
<symbol id="comprobado" viewBox="0 0 24 24"><circle cx="12" cy="12" r="9"></circle><path d="m8 12 3 3 5-6"></path></symbol>
<symbol id="aviso" viewBox="0 0 24 24"><path d="M12 3.5 2.5 20h19z"></path><path d="M12 10v4.5M12 17.5h.01"></path></symbol>
<symbol id="cerrar" viewBox="0 0 24 24"><path d="M6 6l12 12M18 6L6 18"></path></symbol>
<symbol id="atras" viewBox="0 0 24 24"><path d="M19 12H5M12 19l-7-7 7-7"></path></symbol>
<symbol id="filtro" viewBox="0 0 24 24"><path d="M3 5h18l-7 8v6l-4 2v-8z"></path></symbol>
<symbol id="hoy" viewBox="0 0 24 24"><path d="M12 4a8 8 0 1 0 8 8"></path><circle cx="20" cy="12" r="1.2"></circle></symbol>
<symbol id="mas" viewBox="0 0 24 24"><path d="M12 5v14M5 12h14"></path></symbol>
<symbol id="escudo" viewBox="0 0 24 24"><path d="M12 3 5 6v5c0 4.5 3 8 7 10 4-2 7-5.5 7-10V6z"></path></symbol>
<symbol id="imagen" viewBox="0 0 24 24"><rect x="4" y="3" width="16" height="18" rx="2"></rect><path d="M8 8h8M8 12h8M8 16h5"></path></symbol>
<symbol id="pegar" viewBox="0 0 24 24"><rect x="6" y="5" width="12" height="16" rx="1.5"></rect><path d="M9 5V3.5h6V5"></path></symbol>
<symbol id="campana" viewBox="0 0 24 24"><path d="M6 16V11a6 6 0 0 1 12 0v5l1.5 2h-15z"></path><path d="M10 20.5h4"></path></symbol>
<symbol id="ajustes" viewBox="0 0 24 24"><path d="M4 7h10M18 7h2M4 17h2M10 17h10"></path><circle cx="16" cy="7" r="2"></circle><circle cx="8" cy="17" r="2"></circle></symbol>
<symbol id="compartir" viewBox="0 0 24 24"><path d="M12 15V3M8 7l4-4 4 4"></path><path d="M5 11v9h14v-9"></path></symbol>
<symbol id="derecha" viewBox="0 0 24 24"><path d="m9 5 7 7-7 7"></path></symbol>
<symbol id="abajo" viewBox="0 0 24 24"><path d="m5 9 7 7 7-7"></path></symbol>
<symbol id="lapiz" viewBox="0 0 24 24"><path d="M4 20h4L19 9l-4-4L4 16z"></path><path d="m13 7 4 4"></path></symbol>
<symbol id="calendario" viewBox="0 0 24 24"><rect x="3.5" y="5" width="17" height="15" rx="1.5"></rect><path d="M3.5 10h17M8 3v4M16 3v4"></path></symbol>
<symbol id="correo" viewBox="0 0 24 24"><rect x="3" y="5" width="18" height="14" rx="1.5"></rect><path d="m3.5 6 8.5 7 8.5-7"></path></symbol>
<symbol id="candado" viewBox="0 0 24 24"><rect x="5" y="10" width="14" height="10" rx="1.5"></rect><path d="M8 10V7a4 4 0 0 1 8 0v3"></path></symbol>
<symbol id="descargar" viewBox="0 0 24 24"><path d="M12 4v12M7 11l5 5 5-5M5 20h14"></path></symbol>
<symbol id="papelera" viewBox="0 0 24 24"><path d="M4 7h16M9 7V4h6v3M6 7l1 13h10l1-13"></path></symbol>
<symbol id="rayo" viewBox="0 0 24 24"><path d="M13 3 5 14h6l-1 7 8-11h-6z"></path></symbol>
<symbol id="pin" viewBox="0 0 24 24"><path d="M12 21s-6.5-6-6.5-11a6.5 6.5 0 0 1 13 0c0 5-6.5 11-6.5 11z"></path><circle cx="12" cy="10" r="2.3"></circle></symbol>
<symbol id="enlace" viewBox="0 0 24 24"><path d="M10 14a4 4 0 0 0 5.7 0l3-3a4 4 0 0 0-5.7-5.7l-1 1"></path><path d="M14 10a4 4 0 0 0-5.7 0l-3 3a4 4 0 0 0 5.7 5.7l1-1"></path></symbol>
<symbol id="sinred" viewBox="0 0 24 24"><path d="M2 8.5a15 15 0 0 1 20 0M5.5 12a10 10 0 0 1 13 0M9 15.5a5 5 0 0 1 6 0"></path><path d="M12 19h.01M3 3l18 18"></path></symbol>
<symbol id="buscar" viewBox="0 0 24 24"><circle cx="11" cy="11" r="6.5"></circle><path d="m16 16 4.5 4.5"></path></symbol>
<symbol id="sol" viewBox="0 0 24 24"><circle cx="12" cy="12" r="4"></circle><path d="M12 2.5v2M12 19.5v2M2.5 12h2M19.5 12h2M5.3 5.3l1.4 1.4M17.3 17.3l1.4 1.4M5.3 18.7l1.4-1.4M17.3 6.7l1.4-1.4"></path></symbol>
<symbol id="luna" viewBox="0 0 24 24"><path d="M19 14.5A8 8 0 0 1 9.5 5a8 8 0 1 0 9.5 9.5z"></path></symbol>
<symbol id="check" viewBox="0 0 24 24"><path d="m5 12.5 4.5 4.5L19 7.5"></path></symbol>
<symbol id="info" viewBox="0 0 24 24"><circle cx="12" cy="12" r="9"></circle><path d="M12 11v5.5M12 7.5h.01"></path></symbol>
<symbol id="salir" viewBox="0 0 24 24"><path d="M14 4h5v16h-5M10 8l-4 4 4 4M6 12h10"></path></symbol>
<symbol id="medalla" viewBox="0 0 24 24"><circle cx="12" cy="15" r="5.5"></circle><path d="M8.5 10.5 6 3h4l2 5M15.5 10.5 18 3h-4"></path></symbol>
<symbol id="flecha" viewBox="0 0 24 24"><path d="M5 12h14M13 6l6 6-6 6"></path></symbol>
<symbol id="sube" viewBox="0 0 24 24"><path d="m6 15 6-6 6 6"></path></symbol>
<symbol id="baja" viewBox="0 0 24 24"><path d="m6 9 6 6 6-6"></path></symbol>
<symbol id="mas-h" viewBox="0 0 24 24"><path d="M6 12h.01M12 12h.01M18 12h.01"></path></symbol>
<symbol id="ojo" viewBox="0 0 24 24"><path d="M2.5 12S6 5.5 12 5.5 21.5 12 21.5 12 18 18.5 12 18.5 2.5 12 2.5 12z"></path><circle cx="12" cy="12" r="3"></circle></symbol>
</svg>